<!--?xml version="1.0" standalone="no"?-->
              <svg id="sw-js-blob-svg" viewBox="0 0 100 100" xmlns="http://www.w3.org/2000/svg" version="1.1">
                    <defs> 
                        <linearGradient id="sw-gradient" x1="0" x2="1" y1="1" y2="0">
                            <stop id="stop1" stop-color="rgba(234.685, 55, 248, 1)" offset="0%"></stop>
                            <stop id="stop2" stop-color="rgba(31, 251, 191.376, 1)" offset="100%"></stop>
                        </linearGradient>
                    </defs>
                <path fill="url(#sw-gradient)" d="M19.3,-33.7C24.6,-30.3,28.2,-24.3,31.4,-18.3C34.5,-12.2,37.2,-6.1,37.3,0.1C37.4,6.2,34.9,12.4,31.8,18.7C28.8,24.9,25.2,31.2,19.8,35.3C14.4,39.4,7.2,41.4,0.8,40C-5.6,38.6,-11.2,33.9,-17.1,30.1C-23.1,26.3,-29.4,23.4,-34.3,18.6C-39.2,13.7,-42.8,6.9,-41.9,0.5C-41,-5.8,-35.7,-11.7,-31.6,-18C-27.5,-24.3,-24.7,-31.1,-19.6,-34.6C-14.6,-38,-7.3,-38.2,-0.2,-38C7,-37.7,14,-37,19.3,-33.7Z" width="100%" height="100%" transform="translate(50 50)" stroke-width="0" style="transition: all 0.3s ease 0s;"></path>
              </svg>